<svg xmlns="http://www.w3.org/2000/svg" viewBox="0 0 565 87"><defs><style>.cls-1{fill:#fff;}</style></defs><g id="Layer_2" data-name="Layer 2"><g id="Layer_2-2" data-name="Layer 2"><polygon class="cls-1" points="0 0 6 87 565 78 562.21 0 0 0"/><path d="M347,22c0,2,1,8,2,15a22.63,22.63,0,0,0,2,7c1.34,3,2,5,5,5,.92,0,.83-2.92,0-5-2-5-2-21-3-22C350,19,347,20.39,347,22Z"/><path d="M370,33a4.29,4.29,0,0,0-3-1,12,12,0,0,0-9,4,10.52,10.52,0,0,0-3,6c.14,2.94,4.68,5.93,8,6,4.32.09,9-3,9-3,1.85.5.89,1.41,5,4a7.17,7.17,0,0,0,5,1c.67-.49.42-1.17,0-2-1-2-2.09-2-3-4-1-2.12-.84-4.15-2-6-.58-.92-1.81-2.18-3-2s-2.37,2-4,4c-2.43,2.93-6.05,4.5-8,3a2.85,2.85,0,0,1-1-2c-.25-2.49,2.69-5.15,5-5,1.51.1,2,1.34,3,1C370.15,36.59,372,35,370,33Z"/><path d="M383,32c-2-1-3.5,1-4,2-1,2,1,13,7,14,5,.84,7-5,7-5,2,1,.94,3.18,5,6,1.59,1.1,3.42,1.29,4,1a1.94,1.94,0,0,0,1-2c-.08-2.12-1.94-3.82-3-7-1-3-2-6-4-6-3,0-3.38,1.11-7,4-2,1.58-2.33,2-3,2C385,41,385.28,33.14,383,32Z"/><path d="M416,30c-2.69,0-10.05,1-12,7a9.58,9.58,0,0,0,1,8c1.71,2.53,5,4.6,8,4,5-1,8-4,10-5a2.7,2.7,0,0,1,2,0c2.73.32,1,1,6,4,4.11,2.46,8,2,10,2,1.65,0,4.39-1.37,5-3a2.72,2.72,0,0,0-1-3,9.53,9.53,0,0,0-4-1c-1,0-2.45,1-7-1-.74-.33-4-1-5-3-.58-1.17.16-3.52,1-6,1.07-3.17.67-3.18,1-5,.4-2.22.15-5.77-2-7a4.19,4.19,0,0,0-4,0c-5,3-3,9-4,13a13.94,13.94,0,0,1-3,6c-1.79,1.79-7,4-8,1-.49-1.47,3.87-5.69,6-6,1.47-.21,2.24.56,3,0,.94-.7,1-2.84,0-4C418.53,30.46,417.73,30,416,30Z"/><path d="M451,29c-1.38-1.54-4.09-1.23-6,0a5.05,5.05,0,0,0-2,4,11.58,11.58,0,0,0,3,8c3.29,3.26,7,5,7,6,0,2-2.61,1.41-3,2s-1,2.31,0,3c1.47,1,4.79,1,6,0,1.52-1.25,3.67-3.56,3-6-.35-1.29-1.14-2.52-4-5-3.15-2.73-5.46-4.76-5-6,.39-1.06,2.46-.65,3-2S451,29,451,29Z"/><path d="M472,33c-3.08,1.79-7,0-7,5,0,2.34,2,4,5,4,1.62,0,3.18-1.08,5-1,.67,0,2,0,2,2,0,1.53-1.05,2.92-3,4-2.76,1.53-7.06-.08-9-1s-5.88-2.78-7-7a12.19,12.19,0,0,1,2-7,12,12,0,0,1,7-5,8.45,8.45,0,0,1,6,1,2.3,2.3,0,0,1,1,2A4.89,4.89,0,0,1,472,33Z"/><path d="M493,27c-8-1-11.61,1.88-14,7-.11.23-2.16,4.75,0,7,1.21,1.27,4.43,1.46,6,1,2.14-.63,2,0,5-2,.7-.47,2-1.55,3-1s-.13,1.23,1,3a6.58,6.58,0,0,0,4,3,3.14,3.14,0,0,0,3-2c.5-1.3-.2-2.58-1-4-1.73-3.07-2.14-1.78-3-4s.21-3.72-1-5C495.61,29.59,494.87,27.23,493,27Z"/><path d="M501,30c-1,3,3,24,5,27,.37.56,3,.5,4,0,.19-.1,1-.56,1-3,0-7.64-7-20-5-22,1-1,3.25-1,4-1,1.87-.05,5,1,6,2s-.89,3.17-2,4c-1.37,1-2.22-.06-3,1a1.92,1.92,0,0,0,0,2c.95,1.54,4.58,1.5,7,0a6.89,6.89,0,0,0,3-4,9.26,9.26,0,0,0-2-8c-3.28-3.12-9.3-4.51-13-3C505.46,25.22,502.07,26.8,501,30Z"/><path d="M59,18c-5-3-38.71,8.14-38,11,2,8,12,1,13,2,3,3-1,28,7,31a5,5,0,0,0,5-1c1-1-7-27-5-31,2.36-4.72,15-2,18-5C61.3,22.7,61.34,19.41,59,18Z"/><path d="M51,40c-1,1,0,12,2,14,1.06,1.06,4.16,5.4,8,5,6-.63,9-10,8-20-.14-1.38-1-4.5-3-5-1.36-.34-2-1-3,0-2.34,2.34.73,7.79,0,13-.31,2.2-.56,4.64-2,5-4,1-3.33-2.48-4-6-.47-2.49-.86-5-2-6A3.27,3.27,0,0,0,51,40Z"/><path d="M71,40c-1,1,2,13,5,14,.47.16,2.35.43,3,0,1.52-1,0-5,0-8,0-.33,1.54-3.66,4-4,2-.27,3,1.58,5,1,1-.31,2.09-1.24,2-2a12.34,12.34,0,0,0-4-3,7.75,7.75,0,0,0-6,0c-2.93,1.35-4.38,4.15-5,4s.35-.91-1-2A2.5,2.5,0,0,0,71,40Z"/><path d="M93,41c-2,4.22,0,12,5,13a4.13,4.13,0,0,0,3,0c2-1,1.43-.87,4-4a8.06,8.06,0,0,1,2-2c1.25,0,1.56,2.36,4,5,1.12,1.21,2.73,3,5,3a4.83,4.83,0,0,0,4-2c.78-1.28.91-3.27,0-4-1.06-.85-2.88,1.12-4,0s-.71-3.18-2-6c-1.07-2.35-2-5-6-5-5,0-3.27,6.44-8,8-1.43.47-1.91.08-2,0-1-.93,1.15-3.59,0-6a3.27,3.27,0,0,0-3-2C93.86,39.18,93.23,40.52,93,41Z"/><path d="M180,34c-4.83-.65-12.3,4.15-12,9,.18,3,1,5,3,6,4,2,7,2,9,1a59.23,59.23,0,0,0,6-4c1,1,1,1.92,2,4,3,6,10.73,6.08,12,6,2.1-.13,5.84-2.72,6-4,.1-.76-1.1-1.6-2-2-3.55-1.58-6.5.25-9-1-2-1-3.55-6.45-3-12,.38-3.8.52-6.06,4-19,.41-1.52,1.1-4.19,0-5a4.2,4.2,0,0,0-4,0c-7.06,4.87-6,24-6,24C184.37,37.51,183.46,34.47,180,34Z"/><path d="M226,48a2.36,2.36,0,0,1,1,2c-.14,2.11-4.1,3.67-7,4-3.28.37-9.57-.45-12-4-1.53-2.25-2-5-3-6-.55-.55-1.57-.29-2-1-.63-1,0-3,0-3s1.57-.75,2-1c1.61-1,1.63-3.47,2-5,1-4.25,6.37-7.69,11-8,.68-.05,5.86-.39,8,3,1.9,3,1.5,8.61-1,11a10.44,10.44,0,0,1-8,3c-2.09,0-9,5,2,6C221.86,49.26,224.16,46.76,226,48Z"/><path d="M231,37c-1.21,0-1.89,2.46-2,4-.31,4.44,4.8,10.92,10,11,4.68.07,7.73-5.2,8-6,1-3,2-8,1-9s-2.56-1.31-3-1c-3.87,2.68-5.23,8-7,8C237,44,236,37,231,37Z"/><path d="M250,20c-2.19,0-3.75,2.13-4,4-.35,2.65,1.87,5.21,3,5,.79-.15,2.53-1.55,4-3s.71-1.1,1-2C254.42,22.71,252.5,20,250,20Z"/><path d="M253,35c-1,1,5,16,7,17,.21.11,1.58-.58,3-2,1-1-5-16-6-16C256.76,34,254.42,33.58,253,35Z"/><path d="M281,32c-1.33-2.31-9.13-2.55-13,2-3.11,3.67-4,8,0,13,4.57,5.71,14.82,3.87,16,1,.54-1.32-.55-3.48-2-4-1.9-.68-3.23,2-6,2-3,0-4.74-4.15-4-6,2-5,6-3,8-4C281.15,35.42,281.66,33.16,281,32Z"/><path d="M301,25a17.52,17.52,0,0,0-9,5c-4,4-3,8-3,8-1.16.72-2.45,1.09-3,2s0,1.59,1,2a4.08,4.08,0,0,1,2,3c0,4,3.42,6,6,7,.7.29,7.41,2.12,12,0,.31-.14,3.33-2,3-4-.18-1.08-2-2-3-1s-1.87,1-4,1a16.44,16.44,0,0,1-5-1c-3-1-2-3-2-3a3.7,3.7,0,0,1,3-2c2.5,0,6.48-.22,9-3s3-5,3-7-.7-4-4-6A8.11,8.11,0,0,0,301,25Z"/><path d="M526,35c1,0,2-8,13-8a5.66,5.66,0,0,1,5,4c.88,3.37-3.06,7.79-7,9-2.08.64-3.81.28-4,1s1.89,2.36,4,3a12,12,0,0,0,6,0c2.64-.53,3.77-1.4,6-1,.68.12,1.74.31,2,1,.46,1.21-1.83,4.17-3,5a20.65,20.65,0,0,1-11,1c-11-2-10-9-11-9a3.8,3.8,0,0,1-3-1,3.33,3.33,0,0,1,0-4A3.86,3.86,0,0,1,526,35Z"/><path class="cls-1" d="M222,31c-1.58-1.77-2.89-.54-5,0s-5.35,4.61-5,6c.51,2,5,0,8-2A6.55,6.55,0,0,0,222,31Z"/><path class="cls-1" d="M300,30c-2,1-4.91,4.18-4,6,1,2,4.58-.29,6-1,2-1,4-3,3-5C304.41,28.82,302,29,300,30Z"/><path class="cls-1" d="M490,33c-.28-.69-3.32-.87-5,1-.86,1-1.48,2.58-1,3C485,37.84,490.42,34.06,490,33Z"/><path class="cls-1" d="M533,35a7.79,7.79,0,0,0,4-1c.18-.11,2.22-1.3,2-2s-2.42-.93-4,0A4.58,4.58,0,0,0,533,35Z"/><path class="cls-1" d="M186,38c-.23-1-4.9.52-7,1s-5.22,3-5,4,2.9,2.48,5,2S186.22,39,186,38Z"/></g></g></svg>